<svg width="24" height="24" viewBox="0 0 24 24" fill="none" xmlns="http://www.w3.org/2000/svg">
<rect width="24" height="24" rx="12" fill="#60D06E"/>
<path d="M17.9875 14.6687C17.9418 14.6158 17.8851 14.5733 17.8215 14.5442C17.7579 14.5151 17.6887 14.5 17.6188 14.5H17V8C16.9984 7.47007 16.7871 6.96232 16.4124 6.58761C16.0377 6.21289 15.5299 6.00165 15 6H6.50001C5.97008 6.00165 5.46233 6.21289 5.08762 6.58761C4.7129 6.96232 4.50166 7.47007 4.50001 8C4.49842 8.49221 4.68127 8.96717 5.01251 9.33125C5.05544 9.38034 5.10766 9.42044 5.16617 9.44923C5.22468 9.47803 5.28831 9.49494 5.35339 9.49901C5.41847 9.50308 5.48372 9.49422 5.54536 9.47293C5.60699 9.45164 5.66381 9.41836 5.71251 9.375C5.7618 9.33153 5.80203 9.27876 5.8309 9.21973C5.85978 9.16069 5.87674 9.09654 5.8808 9.03094C5.88486 8.96535 5.87596 8.8996 5.85459 8.83745C5.83322 8.7753 5.7998 8.71797 5.75626 8.66875C5.64785 8.54812 5.5704 8.40294 5.53059 8.24571C5.49079 8.08849 5.48982 7.92394 5.52778 7.76626C5.56574 7.60858 5.64148 7.46249 5.74847 7.3406C5.85546 7.21871 5.9905 7.12468 6.14193 7.0666C6.29336 7.00853 6.45664 6.98815 6.6177 7.00724C6.77876 7.02633 6.93276 7.08431 7.06642 7.17617C7.20008 7.26803 7.30939 7.39103 7.38493 7.53455C7.46047 7.67807 7.49996 7.83781 7.50001 8V16C7.50166 16.5299 7.7129 17.0377 8.08762 17.4124C8.46233 17.7871 8.97008 17.9984 9.50001 18H16.5C17.0299 17.9984 17.5377 17.7871 17.9124 17.4124C18.2871 17.0377 18.4984 16.5299 18.5 16C18.5016 15.5078 18.3188 15.0328 17.9875 14.6687V14.6687ZM10.5 10H14.5C14.6326 10 14.7598 10.0527 14.8536 10.1464C14.9473 10.2402 15 10.3674 15 10.5C15 10.6326 14.9473 10.7598 14.8536 10.8536C14.7598 10.9473 14.6326 11 14.5 11H10.5C10.3674 11 10.2402 10.9473 10.1465 10.8536C10.0527 10.7598 10 10.6326 10 10.5C10 10.3674 10.0527 10.2402 10.1465 10.1464C10.2402 10.0527 10.3674 10 10.5 10V10ZM10 12.5C10 12.3674 10.0527 12.2402 10.1465 12.1464C10.2402 12.0527 10.3674 12 10.5 12H14.5C14.6326 12 14.7598 12.0527 14.8536 12.1464C14.9473 12.2402 15 12.3674 15 12.5C15 12.6326 14.9473 12.7598 14.8536 12.8536C14.7598 12.9473 14.6326 13 14.5 13H10.5C10.3674 13 10.2402 12.9473 10.1465 12.8536C10.0527 12.7598 10 12.6326 10 12.5ZM16.5 17H11.2313C11.4065 16.6958 11.4992 16.3511 11.5 16C11.5012 15.8313 11.4802 15.6632 11.4375 15.5H17.3688C17.4547 15.6525 17.4993 15.8248 17.4982 15.9998C17.4972 16.1749 17.4505 16.3466 17.3627 16.4981C17.275 16.6496 17.1493 16.7755 16.998 16.8636C16.8467 16.9516 16.675 16.9986 16.5 17V17Z" fill="black"/>
</svg>
